<?xml version="1.0" encoding="utf-8"?>
<!-- Generator: Adobe Illustrator 19.0.0, SVG Export Plug-In . SVG Version: 6.00 Build 0)  -->
<svg version="1.1" xmlns="http://www.w3.org/2000/svg" xmlns:xlink="http://www.w3.org/1999/xlink" x="0px" y="0px"
	 viewBox="0 0 1000 1000" style="enable-background:new 0 0 1000 1000;" xml:space="preserve">
<style type="text/css">
	.st0{display:none;}
	.st1{display:inline;}
	.st2{display:inline;fill:none;stroke:#fff;stroke-width:10;stroke-linecap:round;stroke-linejoin:round;stroke-miterlimit:10;}
	.st3{display:inline;fill:none;stroke:#fff;stroke-width:6;stroke-linecap:round;stroke-linejoin:round;stroke-dasharray:5;}
	.st4{display:inline;fill:none;stroke:#fff;stroke-width:6;stroke-linecap:round;stroke-linejoin:round;}
	.st5{display:inline;stroke:#fff;stroke-width:6;stroke-linecap:round;stroke-linejoin:round;stroke-miterlimit:10;}
	.st6{fill:none;stroke:#fff;stroke-width:10;stroke-linecap:round;stroke-linejoin:round;stroke-miterlimit:10;}
	.st7{fill:none;stroke:#fff;stroke-width:6;stroke-linecap:round;stroke-linejoin:round;}
	.st8{fill:none;stroke:#fff;stroke-width:6;stroke-linecap:round;stroke-linejoin:round;stroke-dasharray:3.0177,3.0177;}
	.st9{fill:none;stroke:#fff;stroke-width:6;stroke-linecap:round;stroke-linejoin:round;stroke-dasharray:2.8961,2.8961;}
	.st10{fill:none;stroke:#fff;stroke-width:6;stroke-linecap:round;stroke-linejoin:round;stroke-miterlimit:10;}
	.st11{fill:none;stroke:#fff;stroke-width:6;stroke-linecap:round;stroke-linejoin:round;stroke-dasharray:2.9612,2.9612;}
	.st12{display:inline;fill:none;stroke:#fff;stroke-width:10;stroke-linecap:round;stroke-linejoin:round;}
	.st13{display:inline;fill:none;stroke:#fff;stroke-width:10;stroke-miterlimit:10;}
	.st14{display:inline;fill:none;stroke:#fff;stroke-width:10;stroke-linecap:round;stroke-linejoin:round;stroke-miterlimit:10;}
</style>
<g id="_x3F_" class="st0">
	<g id="XMLID_225_" class="st1">
		<rect id="XMLID_226_" x="100" y="494" width="252.6" height="11.7"/>
		<polygon id="XMLID_248_" points="355.8,531.5 230.4,553.9 228.4,542.4 353.8,519.9 		"/>
		<polygon id="XMLID_249_" points="375.1,579.2 264.8,643.9 259,633.7 369.3,569.1 		"/>
		<polygon id="XMLID_250_" points="409.2,617.4 327.4,716.5 318.6,708.9 400.4,609.9 		"/>
		<polygon id="XMLID_251_" points="454.2,641.4 410.7,762.9 399.8,758.9 443.4,637.4 		"/>
		<rect id="XMLID_252_" x="493" y="648.4" width="11.5" height="129.3"/>
		<polygon id="XMLID_253_" points="554.2,637.4 597.7,758.9 586.9,762.9 543.4,641.4 		"/>
		<polygon id="XMLID_254_" points="597.2,609.9 679,708.9 670.2,716.5 588.3,617.4 		"/>
		<polygon id="XMLID_255_" points="628.3,569.1 738.5,633.7 732.8,643.9 622.5,579.2 		"/>
		<polygon id="XMLID_256_" points="643.8,519.9 769.1,542.4 767.1,553.9 641.8,531.5 		"/>
		<polygon id="XMLID_257_" points="641.8,468.3 767.1,445.9 769.1,457.4 643.8,479.9 		"/>
		<polygon id="XMLID_258_" points="622.5,420.6 732.8,355.9 738.5,366.1 628.3,430.7 		"/>
		<polygon id="XMLID_259_" points="588.3,382.4 670.2,283.3 679,290.9 597.2,389.9 		"/>
		<polygon id="XMLID_260_" points="543.4,358.4 586.9,236.9 597.7,240.9 554.2,362.4 		"/>
		<rect id="XMLID_261_" x="493" y="222.1" width="11.5" height="129.3"/>
		<polygon id="XMLID_262_" points="443.4,362.4 399.8,240.9 410.7,236.9 454.2,358.4 		"/>
		<polygon id="XMLID_263_" points="400.4,389.9 318.6,290.9 327.4,283.3 409.2,382.4 		"/>
		<polygon id="XMLID_264_" points="369.3,430.7 259,366.1 264.8,355.9 375.1,420.6 		"/>
		<polygon id="XMLID_265_" points="353.8,479.9 228.4,457.4 230.4,445.9 355.8,468.3 		"/>
		<polygon id="XMLID_231_" points="363.4,556.2 126,643.9 122.1,632.9 359.4,545.2 		"/>
		<polygon id="XMLID_232_" points="390.5,599.8 197,764.7 189.6,755.8 383.1,590.9 		"/>
		<polygon id="XMLID_233_" points="430.7,631.4 304.4,853.6 294.4,847.7 420.7,625.6 		"/>
		<polygon id="XMLID_234_" points="479.1,647.1 435.2,899.8 423.9,897.8 467.7,645.1 		"/>
		<polygon id="XMLID_235_" points="529.9,645.1 573.7,897.8 562.4,899.8 518.5,647.1 		"/>
		<polygon id="XMLID_236_" points="576.9,625.6 703.2,847.7 693.2,853.6 566.9,631.4 		"/>
		<polygon id="XMLID_237_" points="614.5,590.9 808,755.8 800.6,764.7 607.1,599.8 		"/>
		<polygon id="XMLID_238_" points="638.1,545.2 875.5,632.9 871.5,643.9 634.2,556.2 		"/>
		<rect id="XMLID_239_" x="645" y="494" width="252.6" height="11.7"/>
		<polygon id="XMLID_240_" points="634.2,443.6 871.5,355.9 875.5,366.9 638.1,454.6 		"/>
		<polygon id="XMLID_241_" points="607.1,400 800.6,235.1 808,244 614.5,408.9 		"/>
		<polygon id="XMLID_242_" points="566.9,368.4 693.2,146.2 703.2,152.1 576.9,374.2 		"/>
		<polygon id="XMLID_243_" points="518.5,352.7 562.4,100 573.7,102 529.9,354.7 		"/>
		<polygon id="XMLID_244_" points="467.7,354.7 423.9,102 435.2,100 479.1,352.7 		"/>
		<polygon id="XMLID_245_" points="420.7,374.2 294.4,152.1 304.4,146.2 430.7,368.4 		"/>
		<polygon id="XMLID_246_" points="383.1,408.9 189.6,244 197,235.1 390.5,400 		"/>
		<polygon id="XMLID_247_" points="359.4,454.6 122.1,366.9 126,355.9 363.4,443.6 		"/>
	</g>
</g>
<g id="_x3F_2" class="st0">
	<path id="XMLID_26_" class="st1" d="M775.6,376.3l-15.2-15.2v0L500.7,101.4L101.4,500.7l259.7,259.7l10.3,10.3L500.7,900L900,500.7
		L775.6,376.3z M500.7,131.8l244.5,244.5l-64.1,64.1c-36.1,1.4-72.1-3.9-107.6-10c-41.1-7-82.2-14.9-123.6-19.5
		c-40.7-4.5-81.7-5.7-122.4-1c-10.8,1.3-21.7,3-32.3,5.4l-39-39L500.7,131.8z M131.8,500.7l109.1-109.1l244.5,244.5L376.3,745.2
		L131.8,500.7z M391.5,760.4l109.1-109.1l15.2-15.2l244.5-244.5l109.1,109.1L500.7,869.6L391.5,760.4z"/>
</g>
<g id="_x3F_3" class="st0">
	<g id="XMLID_16_" class="st1">
		<g id="XMLID_142_">
			<path id="XMLID_144_" d="M437.9,449.8c0,0-2.3,4.6-6.3,11.3l1.8,0.4C436.5,454.3,437.9,449.8,437.9,449.8z"/>
			<path id="XMLID_143_" d="M261.4,514.9c0.3,0,0.6,0,0.9,0c22.3,0,45,5.1,65,9.7c15.6,3.5,30.3,6.9,41.4,6.9
				c4.3,0,7.9-0.5,10.7-1.6c12.4-4.6,23.7-22.1,31.8-39.2c-10,12-21.9,22.5-33.9,24.7c-30.7,5.6-90.6-43.2-146.4-36.2
				s-131,36.2-131,36.2C193.9,490.8,230.8,511.5,261.4,514.9z"/>
		</g>
		<g id="XMLID_139_">
			<path id="XMLID_141_" d="M430.2,461.3c0,0-1.5,4.9-4.2,12.2l1.8,0.1C429.5,466,430.2,461.3,430.2,461.3z"/>
			<path id="XMLID_140_" d="M267.6,556.1c0.3-0.1,0.6-0.1,0.9-0.2c21.9-3.9,45.2-2.8,65.7-1.8c16,0.8,31.1,1.5,41.9-0.4
				c4.3-0.8,7.7-1.9,10.3-3.4c11.4-6.7,19.5-25.9,24.5-44.1c-7.8,13.5-17.7,26-29.1,30.2c-29.2,10.8-96.7-26.8-150.4-10.3
				s-122.7,58.4-122.7,58.4C196.9,544.1,236.9,558.1,267.6,556.1z"/>
		</g>
		<g id="XMLID_134_">
			<path id="XMLID_138_" d="M424.5,474c0,0-0.6,5.1-2,12.8l1.8-0.2C424.7,478.8,424.5,474,424.5,474z"/>
			<path id="XMLID_137_" d="M280.9,595.6c0.3-0.1,0.6-0.2,0.8-0.3c20.9-7.6,44-10.6,64.4-13.1c15.9-2,30.9-3.9,41.2-7.7
				c4.1-1.5,7.3-3.2,9.6-5.1c10.1-8.6,14.7-28.8,16.5-47.7c-5.3,14.7-12.9,28.6-23.4,34.8c-26.9,15.7-99.9-9.6-149.9,16
				s-110.7,78.9-110.7,78.9C209.2,596.1,251,602.9,280.9,595.6z"/>
		</g>
		<g id="XMLID_21_">
			<path id="XMLID_37_" d="M421.1,487.5c0,0,0.3,5.1,0.2,12.9l1.7-0.6C422.1,492.2,421.1,487.5,421.1,487.5z"/>
			<path id="XMLID_32_" d="M300.8,632.2c0.3-0.2,0.5-0.3,0.8-0.5c19.3-11.1,41.5-18,61.1-24.1c15.3-4.7,29.7-9.2,39.3-14.7
				c3.8-2.2,6.6-4.4,8.5-6.7c8.5-10.2,9.4-31,8-49.9c-2.7,15.4-7.7,30.5-17,38.3c-23.8,20.2-100.1,7.9-144.9,41.8
				c-44.8,33.9-95.3,96.9-95.3,96.9C230.3,645.1,272.6,644.6,300.8,632.2z"/>
		</g>
		<g id="XMLID_38_">
			<path id="XMLID_40_" d="M420.2,501.4c0,0,1.2,5,2.5,12.7l1.6-0.8C421.9,505.8,420.2,501.4,420.2,501.4z"/>
			<path id="XMLID_39_" d="M326.8,664.7c0.2-0.2,0.4-0.4,0.7-0.6c17.1-14.3,37.7-25,56-34.4c14.2-7.3,27.7-14.2,36.1-21.3
				c3.3-2.8,5.7-5.5,7.2-8.1c6.6-11.5,3.9-32.1-0.8-50.5c0,15.6-2.3,31.3-10.1,40.7c-19.9,24-97.2,25.1-135.4,66.3
				c-38.2,41.2-77.1,112-77.1,112C259.6,689.7,301.2,681.9,326.8,664.7z"/>
		</g>
		<g id="XMLID_41_">
			<path id="XMLID_43_" d="M421.6,515.2c0,0,2,4.7,4.7,12.1l1.4-1.1C424.1,519.3,421.6,515.2,421.6,515.2z"/>
			<path id="XMLID_42_" d="M358,692.3c0.2-0.2,0.4-0.5,0.6-0.7c14.3-17.1,32.8-31.1,49.2-43.6c12.7-9.7,24.8-18.8,31.9-27.3
				c2.8-3.3,4.7-6.4,5.7-9.2c4.5-12.5-1.7-32.3-9.6-49.6c2.7,15.4,3.1,31.3-2.9,41.9c-15.4,27.1-91.3,41.6-121.8,88.8
				c-30.5,47.2-56.5,123.7-56.5,123.7C296.2,728.6,335.8,713.6,358,692.3z"/>
		</g>
		<g id="XMLID_44_">
			<path id="XMLID_46_" d="M425.4,528.6c0,0,2.8,4.3,6.7,11.1l1.2-1.3C428.6,532.1,425.4,528.6,425.4,528.6z"/>
			<path id="XMLID_45_" d="M393.5,714c0.1-0.3,0.3-0.5,0.4-0.8c11.1-19.3,26.9-36.4,40.9-51.4c10.9-11.7,21.1-22.8,26.6-32.4
				c2.2-3.8,3.5-7.1,4-10.1c2.2-13.1-7.3-31.5-18-47.2c5.4,14.7,8.5,30.2,4.4,41.7c-10.5,29.3-82.7,56.9-104.6,108.6
				c-21.8,51.8-34.1,131.6-34.1,131.6C339,760.5,375.4,738.9,393.5,714z"/>
		</g>
		<g id="XMLID_47_">
			<path id="XMLID_49_" d="M431.5,541.1c0,0,3.5,3.7,8.5,9.7l1-1.5C435.3,544,431.5,541.1,431.5,541.1z"/>
			<path id="XMLID_48_" d="M432.3,729.3c0.1-0.3,0.2-0.6,0.3-0.9c7.6-20.9,20.2-40.5,31.3-57.8c8.7-13.5,16.8-26.2,20.6-36.5
				c1.5-4.1,2.2-7.6,2.2-10.6c-0.1-13.3-12.7-29.8-26-43.3c7.8,13.5,13.6,28.3,11.6,40.3c-5.2,30.7-71.6,70.4-84.1,125.1
				c-12.5,54.8-10.8,135.5-10.8,135.5C386.6,784.5,418.7,756.9,432.3,729.3z"/>
		</g>
		<g id="XMLID_50_">
			<path id="XMLID_52_" d="M439.7,552.4c0,0,4.1,3.1,10.1,8.1l0.7-1.7C443.9,554.6,439.7,552.4,439.7,552.4z"/>
			<path id="XMLID_51_" d="M473.2,737.5c0.1-0.3,0.1-0.6,0.1-0.9c3.9-21.9,12.9-43.4,20.8-62.3c6.2-14.8,12-28.7,13.9-39.6
				c0.8-4.3,0.9-7.9,0.3-10.8c-2.4-13-17.6-27.1-33.1-38.2c10.1,12,18.4,25.5,18.4,37.7c0.2,31.2-58.3,81.7-61.1,137.8
				c-2.8,56.1,12.9,135.3,12.9,135.3C437.8,799.9,464.6,767.1,473.2,737.5z"/>
		</g>
		<g id="XMLID_53_">
			<path id="XMLID_55_" d="M449.7,562.1c0,0,4.6,2.3,11.3,6.3l0.4-1.8C454.2,563.5,449.7,562.1,449.7,562.1z"/>
			<path id="XMLID_54_" d="M514.8,738.6c0-0.3,0-0.6,0-0.9c0-22.3,5.1-45,9.7-65c3.5-15.6,6.9-30.3,6.9-41.4c0-4.3-0.5-7.9-1.6-10.7
				c-4.6-12.4-22.1-23.7-39.2-31.8c12,10,22.5,21.9,24.7,33.9c5.6,30.7-43.2,90.6-36.2,146.4s36.2,131,36.2,131
				C490.8,806.1,511.5,769.2,514.8,738.6z"/>
		</g>
		<g id="XMLID_56_">
			<path id="XMLID_58_" d="M461.3,569.8c0,0,4.9,1.5,12.2,4.2l0.1-1.8C466,570.5,461.3,569.8,461.3,569.8z"/>
			<path id="XMLID_57_" d="M556,732.4c-0.1-0.3-0.1-0.6-0.2-0.9c-3.9-21.9-2.8-45.2-1.8-65.7c0.8-16,1.5-31.1-0.4-41.9
				c-0.8-4.3-1.9-7.7-3.4-10.3c-6.7-11.4-25.9-19.5-44.1-24.5c13.5,7.8,26,17.7,30.2,29.1c10.8,29.2-26.8,96.7-10.3,150.4
				c16.5,53.7,58.4,122.7,58.4,122.7C544.1,803.1,558,763.1,556,732.4z"/>
		</g>
		<g id="XMLID_59_">
			<path id="XMLID_61_" d="M474,575.5c0,0,5.1,0.6,12.8,2l-0.2-1.8C478.7,575.3,474,575.5,474,575.5z"/>
			<path id="XMLID_60_" d="M595.5,719.1c-0.1-0.3-0.2-0.6-0.3-0.8c-7.6-20.9-10.6-44-13.1-64.4c-2-15.9-3.9-30.9-7.7-41.2
				c-1.5-4.1-3.2-7.3-5.1-9.6c-8.6-10.1-28.8-14.7-47.7-16.5c14.7,5.3,28.6,12.9,34.8,23.4c15.7,26.9-9.6,99.9,16,149.9
				c25.6,50,78.9,110.7,78.9,110.7C596,790.8,602.9,749,595.5,719.1z"/>
		</g>
		<g id="XMLID_62_">
			<path id="XMLID_64_" d="M487.5,578.9c0,0,5.1-0.3,12.9-0.2l-0.6-1.7C492.1,577.9,487.5,578.9,487.5,578.9z"/>
			<path id="XMLID_63_" d="M632.1,699.2c-0.2-0.3-0.3-0.5-0.5-0.8c-11.1-19.3-18-41.5-24.1-61.1c-4.7-15.3-9.2-29.7-14.7-39.3
				c-2.2-3.8-4.4-6.6-6.7-8.5c-10.2-8.5-31-9.4-49.9-8c15.4,2.7,30.5,7.7,38.3,17c20.2,23.8,7.9,100.1,41.8,144.9
				c33.9,44.8,96.9,95.3,96.9,95.3C645.1,769.7,644.5,727.4,632.1,699.2z"/>
		</g>
		<g id="XMLID_65_">
			<path id="XMLID_67_" d="M501.3,579.8c0,0,5-1.2,12.7-2.5l-0.8-1.6C505.7,578.1,501.3,579.8,501.3,579.8z"/>
			<path id="XMLID_66_" d="M664.7,673.2c-0.2-0.2-0.4-0.4-0.6-0.7c-14.3-17.1-25-37.7-34.4-56c-7.3-14.2-14.2-27.7-21.3-36.1
				c-2.8-3.3-5.5-5.7-8.1-7.2c-11.5-6.6-32.1-3.9-50.5,0.8c15.6,0,31.3,2.3,40.7,10.1c24,19.9,25.1,97.2,66.3,135.4
				c41.2,38.2,112,77.1,112,77.1C689.7,740.4,681.8,698.8,664.7,673.2z"/>
		</g>
		<g id="XMLID_68_">
			<path id="XMLID_70_" d="M515.2,578.4c0,0,4.7-2,12.1-4.7l-1.1-1.4C519.2,575.9,515.2,578.4,515.2,578.4z"/>
			<path id="XMLID_69_" d="M692.2,642c-0.2-0.2-0.5-0.4-0.7-0.6c-17.1-14.3-31.1-32.8-43.6-49.2c-9.7-12.7-18.8-24.8-27.3-31.9
				c-3.3-2.8-6.4-4.7-9.2-5.7c-12.5-4.5-32.3,1.7-49.6,9.6c15.4-2.7,31.3-3.1,41.9,2.9c27.1,15.4,41.6,91.3,88.8,121.8
				s123.7,56.5,123.7,56.5C728.5,703.8,713.6,664.2,692.2,642z"/>
		</g>
		<g id="XMLID_71_">
			<path id="XMLID_73_" d="M528.6,574.6c0,0,4.3-2.8,11.1-6.7l-1.3-1.2C532.1,571.4,528.6,574.6,528.6,574.6z"/>
			<path id="XMLID_72_" d="M714,606.5c-0.3-0.1-0.5-0.3-0.8-0.4c-19.3-11.1-36.4-26.9-51.4-40.9c-11.7-10.9-22.8-21.1-32.4-26.6
				c-3.8-2.2-7.1-3.5-10.1-4c-13.1-2.2-31.5,7.3-47.2,18c14.7-5.4,30.2-8.5,41.7-4.4c29.3,10.5,56.9,82.7,108.6,104.6
				c51.8,21.8,131.6,34.1,131.6,34.1C760.4,661,738.8,624.6,714,606.5z"/>
		</g>
		<g id="XMLID_74_">
			<path id="XMLID_76_" d="M541.1,568.5c0,0,3.7-3.5,9.7-8.5l-1.5-1C544,564.7,541.1,568.5,541.1,568.5z"/>
			<path id="XMLID_75_" d="M729.2,567.7c-0.3-0.1-0.6-0.2-0.9-0.3c-20.9-7.6-40.5-20.2-57.8-31.3c-13.5-8.7-26.2-16.8-36.5-20.6
				c-4.1-1.5-7.6-2.2-10.6-2.2c-13.3,0.1-29.8,12.7-43.3,26c13.5-7.8,28.3-13.6,40.3-11.6c30.7,5.2,70.4,71.6,125.1,84.1
				c54.8,12.5,135.5,10.8,135.5,10.8C784.4,613.4,756.8,581.3,729.2,567.7z"/>
		</g>
		<g id="XMLID_77_">
			<path id="XMLID_79_" d="M552.3,560.3c0,0,3.1-4.1,8.1-10.1l-1.7-0.7C554.5,556.1,552.3,560.3,552.3,560.3z"/>
			<path id="XMLID_78_" d="M737.5,526.8c-0.3-0.1-0.6-0.1-0.9-0.1c-21.9-3.9-43.4-12.9-62.3-20.8c-14.8-6.2-28.7-12-39.6-13.9
				c-4.3-0.8-7.9-0.9-10.8-0.3c-13,2.4-27.1,17.6-38.2,33.1c12-10.1,25.5-18.4,37.7-18.4c31.2-0.2,81.7,58.3,137.8,61.1
				c56.1,2.8,135.3-12.9,135.3-12.9C799.8,562.2,767,535.4,737.5,526.8z"/>
		</g>
		<g id="XMLID_80_">
			<path id="XMLID_82_" d="M562,550.3c0,0,2.3-4.6,6.3-11.3l-1.8-0.4C563.4,545.8,562,550.3,562,550.3z"/>
			<path id="XMLID_81_" d="M738.5,485.2c-0.3,0-0.6,0-0.9,0c-22.3,0-45-5.1-65-9.7c-15.6-3.5-30.3-6.9-41.4-6.9
				c-4.3,0-7.9,0.5-10.7,1.6c-12.4,4.6-23.7,22.1-31.8,39.2c10-12,21.9-22.5,33.9-24.7c30.7-5.6,90.6,43.2,146.4,36.2
				c55.8-7,131-36.2,131-36.2C806,509.2,769.1,488.5,738.5,485.2z"/>
		</g>
		<g id="XMLID_83_">
			<path id="XMLID_85_" d="M569.8,538.7c0,0,1.5-4.9,4.2-12.2l-1.8-0.1C570.4,534,569.8,538.7,569.8,538.7z"/>
			<path id="XMLID_84_" d="M732.3,444c-0.3,0.1-0.6,0.1-0.9,0.2c-21.9,3.9-45.2,2.8-65.7,1.8c-16-0.8-31.1-1.5-41.9,0.4
				c-4.3,0.8-7.7,1.9-10.3,3.4c-11.4,6.7-19.5,25.9-24.5,44.1c7.8-13.5,17.7-26,29.1-30.2c29.2-10.8,96.7,26.8,150.4,10.3
				c53.7-16.5,122.7-58.4,122.7-58.4C803,455.9,763.1,442,732.3,444z"/>
		</g>
		<g id="XMLID_86_">
			<path id="XMLID_88_" d="M575.4,526c0,0,0.6-5.1,2-12.8l-1.8,0.2C575.3,521.3,575.4,526,575.4,526z"/>
			<path id="XMLID_87_" d="M719.1,404.5c-0.3,0.1-0.6,0.2-0.8,0.3c-20.9,7.6-44,10.6-64.4,13.1c-15.9,2-30.9,3.9-41.2,7.7
				c-4.1,1.5-7.3,3.2-9.6,5.1c-10.1,8.6-14.7,28.8-16.5,47.7c5.3-14.7,12.9-28.6,23.4-34.8c26.9-15.7,99.9,9.6,149.9-16
				s110.7-78.9,110.7-78.9C790.7,404,749,397.1,719.1,404.5z"/>
		</g>
		<g id="XMLID_89_">
			<path id="XMLID_91_" d="M578.8,512.5c0,0-0.3-5.1-0.2-12.9l-1.7,0.6C577.8,507.9,578.8,512.5,578.8,512.5z"/>
			<path id="XMLID_90_" d="M699.1,367.9c-0.3,0.2-0.5,0.3-0.8,0.5c-19.3,11.1-41.5,18-61.1,24.1c-15.3,4.7-29.7,9.2-39.3,14.7
				c-3.8,2.2-6.6,4.4-8.5,6.7c-8.5,10.2-9.4,31-8,49.9c2.7-15.4,7.7-30.5,17-38.3c23.8-20.2,100.1-7.9,144.9-41.8
				s95.3-96.9,95.3-96.9C769.6,354.9,727.3,355.5,699.1,367.9z"/>
		</g>
		<g id="XMLID_92_">
			<path id="XMLID_94_" d="M579.8,498.7c0,0-1.2-5-2.5-12.7l-1.6,0.8C578,494.3,579.8,498.7,579.8,498.7z"/>
			<path id="XMLID_93_" d="M673.2,335.3c-0.2,0.2-0.4,0.4-0.7,0.6c-17.1,14.3-37.7,25-56,34.4c-14.2,7.3-27.7,14.2-36.1,21.3
				c-3.3,2.8-5.7,5.5-7.2,8.1c-6.6,11.5-3.9,32.1,0.8,50.5c0-15.6,2.3-31.3,10.1-40.7c19.9-24,97.2-25.1,135.4-66.3
				s77.1-112,77.1-112C740.3,310.3,698.8,318.2,673.2,335.3z"/>
		</g>
		<g id="XMLID_95_">
			<path id="XMLID_97_" d="M578.3,484.8c0,0-2-4.7-4.7-12.1l-1.4,1.1C575.8,480.8,578.3,484.8,578.3,484.8z"/>
			<path id="XMLID_96_" d="M641.9,307.8c-0.2,0.2-0.4,0.5-0.6,0.7c-14.3,17.1-32.8,31.1-49.2,43.6c-12.7,9.7-24.8,18.8-31.9,27.3
				c-2.8,3.3-4.7,6.4-5.7,9.2c-4.5,12.5,1.7,32.3,9.6,49.6c-2.7-15.4-3.1-31.3,2.9-41.9c15.4-27.1,91.3-41.6,121.8-88.8
				s56.5-123.7,56.5-123.7C703.8,271.5,664.2,286.4,641.9,307.8z"/>
		</g>
		<g id="XMLID_98_">
			<path id="XMLID_100_" d="M574.5,471.4c0,0-2.8-4.3-6.7-11.1l-1.2,1.3C571.3,467.9,574.5,471.4,574.5,471.4z"/>
			<path id="XMLID_99_" d="M606.4,286c-0.2,0.3-0.3,0.5-0.4,0.8c-11.1,19.3-26.9,36.4-40.9,51.4c-10.9,11.7-21.1,22.8-26.6,32.4
				c-2.2,3.8-3.5,7.1-4,10.1c-2.2,13.1,7.3,31.5,18,47.2c-5.4-14.7-8.5-30.2-4.4-41.7c10.5-29.3,82.7-56.9,104.6-108.6
				S686.8,146,686.8,146C661,239.6,624.6,261.2,606.4,286z"/>
		</g>
		<g id="XMLID_101_">
			<path id="XMLID_103_" d="M568.4,458.9c0,0-3.5-3.7-8.5-9.7l-1,1.5C564.6,456,568.4,458.9,568.4,458.9z"/>
			<path id="XMLID_102_" d="M567.6,270.8c-0.1,0.3-0.2,0.6-0.3,0.9c-7.6,20.9-20.2,40.5-31.3,57.8c-8.7,13.5-16.8,26.2-20.6,36.5
				c-1.5,4.1-2.2,7.6-2.2,10.6c0.1,13.3,12.7,29.8,26,43.3c-7.8-13.5-13.6-28.3-11.6-40.3c5.2-30.7,71.6-70.4,84.1-125.1
				c12.5-54.8,10.8-135.5,10.8-135.5C613.3,215.6,581.2,243.2,567.6,270.8z"/>
		</g>
		<g id="XMLID_104_">
			<path id="XMLID_106_" d="M560.2,447.7c0,0-4.1-3.1-10.1-8.1l-0.7,1.7C556,445.5,560.2,447.7,560.2,447.7z"/>
			<path id="XMLID_105_" d="M526.8,262.5c-0.1,0.3-0.1,0.6-0.1,0.9c-3.9,21.9-12.9,43.4-20.8,62.3c-6.2,14.8-12,28.7-13.9,39.6
				c-0.8,4.3-0.9,7.9-0.3,10.8c2.4,13,17.6,27.1,33.1,38.2c-10.1-12-18.4-25.5-18.4-37.7c-0.2-31.2,58.3-81.7,61.1-137.8
				c2.8-56.1-12.9-135.3-12.9-135.3C562.2,200.2,535.4,232.9,526.8,262.5z"/>
		</g>
		<g id="XMLID_107_">
			<path id="XMLID_109_" d="M550.2,438c0,0-4.6-2.3-11.3-6.3l-0.4,1.8C545.7,436.6,550.2,438,550.2,438z"/>
			<path id="XMLID_108_" d="M485.1,261.5c0,0.3,0,0.6,0,0.9c0,22.3-5.1,45-9.7,65c-3.5,15.6-6.9,30.3-6.9,41.4
				c0,4.3,0.5,7.9,1.6,10.7c4.6,12.4,22.1,23.7,39.2,31.8c-12-10-22.5-21.9-24.7-33.9c-5.6-30.7,43.2-90.6,36.2-146.4
				s-36.2-131-36.2-131C509.2,194,488.5,230.9,485.1,261.5z"/>
		</g>
		<g id="XMLID_110_">
			<path id="XMLID_112_" d="M538.7,430.2c0,0-4.9-1.5-12.2-4.2l-0.1,1.8C534,429.6,538.7,430.2,538.7,430.2z"/>
			<path id="XMLID_111_" d="M443.9,267.7c0.1,0.3,0.1,0.6,0.2,0.9c3.9,21.9,2.8,45.2,1.8,65.7c-0.8,16-1.5,31.1,0.4,41.9
				c0.8,4.3,1.9,7.7,3.4,10.3c6.7,11.4,25.9,19.5,44.1,24.5c-13.5-7.8-26-17.7-30.2-29.1c-10.8-29.2,26.8-96.7,10.3-150.4
				s-58.4-122.7-58.4-122.7C455.9,197,441.9,236.9,443.9,267.7z"/>
		</g>
		<g id="XMLID_113_">
			<path id="XMLID_115_" d="M526,424.6c0,0-5.1-0.6-12.8-2l0.2,1.8C521.2,424.7,526,424.6,526,424.6z"/>
			<path id="XMLID_114_" d="M404.4,280.9c0.1,0.3,0.2,0.6,0.3,0.8c7.6,20.9,10.6,44,13.1,64.4c2,15.9,3.9,30.9,7.7,41.2
				c1.5,4.1,3.2,7.3,5.1,9.6c8.6,10.1,28.8,14.7,47.7,16.5c-14.7-5.3-28.6-12.9-34.8-23.4c-15.7-26.9,9.6-99.9-16-149.9
				s-78.9-110.7-78.9-110.7C403.9,209.3,397.1,251,404.4,280.9z"/>
		</g>
		<g id="XMLID_116_">
			<path id="XMLID_118_" d="M512.5,421.2c0,0-5.1,0.3-12.9,0.2l0.6,1.7C507.8,422.2,512.5,421.2,512.5,421.2z"/>
			<path id="XMLID_117_" d="M367.8,300.9c0.2,0.3,0.3,0.5,0.5,0.8c11.1,19.3,18,41.5,24.1,61.1c4.7,15.3,9.2,29.7,14.7,39.3
				c2.2,3.8,4.4,6.6,6.7,8.5c10.2,8.5,31,9.4,49.9,8c-15.4-2.7-30.5-7.7-38.3-17c-20.2-23.8-7.9-100.1-41.8-144.9
				s-96.9-95.3-96.9-95.3C354.9,230.4,355.4,272.7,367.8,300.9z"/>
		</g>
		<g id="XMLID_119_">
			<path id="XMLID_121_" d="M498.6,420.2c0,0-5,1.2-12.7,2.5l0.8,1.6C494.2,422,498.6,420.2,498.6,420.2z"/>
			<path id="XMLID_120_" d="M335.3,326.8c0.2,0.2,0.4,0.4,0.6,0.7c14.3,17.1,25,37.7,34.4,56c7.3,14.2,14.2,27.7,21.3,36.1
				c2.8,3.3,5.5,5.7,8.1,7.2c11.5,6.6,32.1,3.9,50.5-0.8c-15.6,0-31.3-2.3-40.7-10.1c-24-19.9-25.1-97.2-66.3-135.4
				s-112-77.1-112-77.1C310.3,259.7,318.1,301.2,335.3,326.8z"/>
		</g>
		<g id="XMLID_122_">
			<path id="XMLID_124_" d="M484.8,421.7c0,0-4.7,2-12.1,4.7l1.1,1.4C480.7,424.2,484.8,421.7,484.8,421.7z"/>
			<path id="XMLID_123_" d="M307.7,358.1c0.2,0.2,0.5,0.4,0.7,0.6c17.1,14.3,31.1,32.8,43.6,49.2c9.7,12.7,18.8,24.8,27.3,31.9
				c3.3,2.8,6.4,4.7,9.2,5.7c12.5,4.5,32.3-1.7,49.6-9.6c-15.4,2.7-31.3,3.1-41.9-2.9c-27.1-15.4-41.6-91.3-88.8-121.8
				s-123.7-56.5-123.7-56.5C271.4,296.2,286.4,335.8,307.7,358.1z"/>
		</g>
		<g id="XMLID_125_">
			<path id="XMLID_127_" d="M471.4,425.5c0,0-4.3,2.8-11.1,6.7l1.3,1.2C467.9,428.7,471.4,425.5,471.4,425.5z"/>
			<path id="XMLID_126_" d="M286,393.6c0.3,0.1,0.5,0.3,0.8,0.4c19.3,11.1,36.4,26.9,51.4,40.9c11.7,10.9,22.8,21.1,32.4,26.6
				c3.8,2.2,7.1,3.5,10.1,4c13.1,2.2,31.5-7.3,47.2-18c-14.7,5.4-30.2,8.5-41.7,4.4c-29.3-10.5-56.9-82.7-108.6-104.6
				s-131.6-34.1-131.6-34.1C239.5,339,261.1,375.4,286,393.6z"/>
		</g>
		<g id="XMLID_128_">
			<path id="XMLID_130_" d="M458.9,431.6c0,0-3.7,3.5-9.7,8.5l1.5,1C456,435.4,458.9,431.6,458.9,431.6z"/>
			<path id="XMLID_129_" d="M270.7,432.4c0.3,0.1,0.6,0.2,0.9,0.3c20.9,7.6,40.5,20.2,57.8,31.3c13.5,8.7,26.2,16.8,36.5,20.6
				c4.1,1.5,7.6,2.2,10.6,2.2c13.3-0.1,29.8-12.7,43.3-26c-13.5,7.8-28.3,13.6-40.3,11.6c-30.7-5.2-70.4-71.6-125.1-84.1
				c-54.8-12.5-135.5-10.8-135.5-10.8C215.5,386.7,243.1,418.8,270.7,432.4z"/>
		</g>
		<g id="XMLID_131_">
			<path id="XMLID_133_" d="M447.6,439.8c0,0-3.1,4.1-8.1,10.1l1.7,0.7C445.4,444,447.6,439.8,447.6,439.8z"/>
			<path id="XMLID_132_" d="M262.5,473.2c0.3,0.1,0.6,0.1,0.9,0.1c21.9,3.9,43.4,12.9,62.3,20.8c14.8,6.2,28.7,12,39.6,13.9
				c4.3,0.8,7.9,0.9,10.8,0.3c13-2.4,27.1-17.6,38.2-33.1c-12,10.1-25.5,18.4-37.7,18.4c-31.2,0.2-81.7-58.3-137.8-61.1
				c-56.1-2.8-135.3,12.9-135.3,12.9C200.1,437.8,232.9,464.6,262.5,473.2z"/>
		</g>
	</g>
	<circle id="XMLID_5_" class="st1" cx="500" cy="500" r="53.5"/>
</g>
<g id="_x3F_4" class="st0">
	<line class="st2" x1="500" y1="900" x2="500" y2="100"/>
	<line class="st2" x1="350" y1="800" x2="350" y2="200"/>
	<line class="st2" x1="650" y1="800" x2="650" y2="200"/>
	<line class="st2" x1="300" y1="725" x2="400" y2="775"/>
	<line class="st2" x1="700" y1="725" x2="600" y2="775"/>
</g>
<g id="_x3F_5" class="st0">
	<circle class="st3" cx="350" cy="400" r="50"/>
	<circle class="st3" cx="650" cy="400" r="50"/>
	<circle class="st3" cx="500" cy="650" r="50"/>
	<path class="st3" d="M800,925"/>
	<path class="st3" d="M200,925"/>
	<polygon class="st3" points="500,656.3 650,400 350,400 	"/>
	<line class="st4" x1="350" y1="400" x2="500" y2="500"/>
	<line class="st4" x1="500" y1="500" x2="650" y2="400"/>
	<line class="st4" x1="500" y1="500" x2="500" y2="656.3"/>
	<circle class="st4" cx="500" cy="500" r="400"/>
</g>
<g id="SolemnCosmic" class="st0">
	<rect x="493.8" y="100" class="st5" width="12.5" height="800"/>
	<polygon class="st5" points="200,200 800,200 775,212.5 225,212.5 	"/>
	<polygon class="st5" points="700,337.5 300,337.5 325,325 675,325 	"/>
</g>
<g id="NoxLux" class="st0">
	<g class="st1">
		<path d="M500,110c52.7,0,103.7,10.3,151.8,30.6c46.4,19.6,88.1,47.8,124,83.6s63.9,77.5,83.6,124C879.7,396.3,890,447.3,890,500
			s-10.3,103.7-30.6,151.8c-19.6,46.4-47.8,88.1-83.6,124s-77.5,63.9-124,83.6C603.7,879.7,552.7,890,500,890
			s-103.7-10.3-151.8-30.6c-46.4-19.6-88.1-47.8-124-83.6s-63.9-77.5-83.6-124C120.3,603.7,110,552.7,110,500s10.3-103.7,30.6-151.8
			c19.6-46.4,47.8-88.1,83.6-124s77.5-63.9,124-83.6C396.3,120.3,447.3,110,500,110 M500,100c-220.9,0-400,179.1-400,400
			s179.1,400,400,400s400-179.1,400-400S720.9,100,500,100L500,100z"/>
	</g>
	<line class="st2" x1="300" y1="500" x2="700" y2="500"/>
	<polygon class="st2" points="500,600 400,500 600,500 	"/>
</g>
<g id="AevaNil_1_" class="st0">
	<g class="st1">
		<path d="M500,110c52.7,0,103.7,10.3,151.8,30.6c46.4,19.6,88.1,47.8,124,83.6s63.9,77.5,83.6,124C879.7,396.3,890,447.3,890,500
			s-10.3,103.7-30.6,151.8c-19.6,46.4-47.8,88.1-83.6,124s-77.5,63.9-124,83.6C603.7,879.7,552.7,890,500,890
			s-103.7-10.3-151.8-30.6c-46.4-19.6-88.1-47.8-124-83.6s-63.9-77.5-83.6-124C120.3,603.7,110,552.7,110,500s10.3-103.7,30.6-151.8
			c19.6-46.4,47.8-88.1,83.6-124s77.5-63.9,124-83.6C396.3,120.3,447.3,110,500,110 M500,100c-220.9,0-400,179.1-400,400
			s179.1,400,400,400s400-179.1,400-400S720.9,100,500,100L500,100z"/>
	</g>
	<line class="st2" x1="700" y1="500" x2="300" y2="500"/>
	<polygon class="st2" points="500,400 600,500 400,500 	"/>
</g>
<g id="MoraMod" class="st0">
	<g class="st1">
		<path d="M500,470c16.5,0,30,13.5,30,30s-13.5,30-30,30s-30-13.5-30-30S483.5,470,500,470 M500,400c-55.2,0-100,44.8-100,100
			s44.8,100,100,100s100-44.8,100-100S555.2,400,500,400L500,400z"/>
	</g>
	<g class="st1">
		<path d="M500,110c52.7,0,103.7,10.3,151.8,30.6c46.4,19.6,88.1,47.8,124,83.6s63.9,77.5,83.6,124C879.7,396.3,890,447.3,890,500
			s-10.3,103.7-30.6,151.8c-19.6,46.4-47.8,88.1-83.6,124s-77.5,63.9-124,83.6C603.7,879.7,552.7,890,500,890
			s-103.7-10.3-151.8-30.6c-46.4-19.6-88.1-47.8-124-83.6s-63.9-77.5-83.6-124C120.3,603.7,110,552.7,110,500s10.3-103.7,30.6-151.8
			c19.6-46.4,47.8-88.1,83.6-124s77.5-63.9,124-83.6C396.3,120.3,447.3,110,500,110 M500,100c-220.9,0-400,179.1-400,400
			s179.1,400,400,400s400-179.1,400-400S720.9,100,500,100L500,100z"/>
	</g>
</g>
<g id="Purity" class="st0">
	<circle class="st2" cx="500" cy="200" r="100"/>
	<polygon class="st2" points="400,350 600,350 500,450 	"/>
	<line class="st2" x1="500" y1="450" x2="500" y2="900"/>
</g>
<g id="AI" class="st0">
	<path class="st1" d="M500,208.3L358.6,349.7L500,491.2l141.4-141.4L500,208.3z M500,385.1l-35.4-35.4l35.4-35.4l35.4,35.4
		L500,385.1z"/>
	<path class="st1" d="M349.7,358.6L208.3,500l141.4,141.4L491.2,500L349.7,358.6z M349.7,535.4L314.4,500l35.4-35.4l35.4,35.4
		L349.7,535.4z"/>
	<path class="st1" d="M500,508.8L358.6,650.3L500,791.7l141.4-141.4L500,508.8z M500,685.6l-35.4-35.4l35.4-35.4l35.4,35.4
		L500,685.6z"/>
	<path class="st1" d="M650.3,358.6L508.8,500l141.4,141.4L791.7,500L650.3,358.6z M650.3,535.4L614.9,500l35.4-35.4l35.4,35.4
		L650.3,535.4z"/>
	<g class="st1">
		<path d="M500,140c48.6,0,95.8,9.5,140.1,28.3c42.9,18.1,81.4,44.1,114.4,77.2c33.1,33.1,59,71.6,77.2,114.4
			C850.5,404.2,860,451.4,860,500c0,48.6-9.5,95.8-28.3,140.1c-18.1,42.9-44.1,81.4-77.2,114.4s-71.6,59-114.4,77.2
			C595.8,850.5,548.6,860,500,860c-48.6,0-95.8-9.5-140.1-28.3c-42.9-18.1-81.4-44.1-114.4-77.2c-33.1-33.1-59-71.6-77.2-114.4
			C149.5,595.8,140,548.6,140,500c0-48.6,9.5-95.8,28.3-140.1c18.1-42.9,44.1-81.4,77.2-114.4c33.1-33.1,71.6-59,114.4-77.2
			C404.2,149.5,451.4,140,500,140 M500,100c-220.9,0-400,179.1-400,400s179.1,400,400,400s400-179.1,400-400S720.9,100,500,100
			L500,100z"/>
	</g>
</g>
<g id="V-OS">
	<g id="XMLID_28_">
		<polygon id="XMLID_490_" class="st6" points="789.7,231 500,900 210.3,231 500,362.1 		"/>
		<g id="XMLID_484_">
			<g id="XMLID_33_">
				<line id="XMLID_36_" class="st7" x1="789.7" y1="233.2" x2="787.6" y2="234.8"/>
				<line id="XMLID_35_" class="st8" x1="783.6" y1="238.1" x2="504.2" y2="460.4"/>
				<line id="XMLID_34_" class="st7" x1="502.1" y1="462.2" x2="500" y2="463.7"/>
			</g>
		</g>
		<g id="XMLID_477_">
			<g id="XMLID_27_">
				<line id="XMLID_31_" class="st7" x1="500" y1="463.7" x2="497.9" y2="462.2"/>
				<line id="XMLID_30_" class="st8" x1="493.9" y1="458.8" x2="214.5" y2="236.6"/>
				<line id="XMLID_29_" class="st7" x1="212.4" y1="234.8" x2="210.3" y2="233.2"/>
			</g>
		</g>
		<g id="XMLID_471_">
			<g id="XMLID_22_">
				<line id="XMLID_25_" class="st7" x1="500" y1="463.7" x2="500" y2="461.1"/>
				<line id="XMLID_24_" class="st9" x1="500" y1="456" x2="500" y2="367.2"/>
				<line id="XMLID_23_" class="st7" x1="500" y1="364.7" x2="500" y2="362.1"/>
			</g>
		</g>
		<line id="XMLID_470_" class="st10" x1="500" y1="900" x2="500" y2="463.7"/>
		<line id="XMLID_469_" class="st10" x1="500" y1="716.8" x2="398.2" y2="665"/>
		<polygon id="XMLID_468_" class="st6" points="789.7,231 500,99.9 210.3,231 500,362.1 		"/>
		<line id="XMLID_467_" class="st10" x1="500" y1="99.9" x2="500" y2="362.1"/>
		<line id="XMLID_460_" class="st10" x1="500" y1="716.8" x2="601.8" y2="665"/>
		<g id="XMLID_402_">
			<g id="XMLID_17_">
				<line id="XMLID_20_" class="st7" x1="500" y1="613.1" x2="502.3" y2="614.1"/>
				<line id="XMLID_19_" class="st11" x1="507" y1="616.6" x2="597.1" y2="662.5"/>
				<line id="XMLID_18_" class="st7" x1="599.4" y1="663.7" x2="601.8" y2="665"/>
			</g>
		</g>
		<g id="XMLID_2_">
			<g id="XMLID_12_">
				<line id="XMLID_15_" class="st7" x1="500" y1="613.1" x2="497.7" y2="614.1"/>
				<line id="XMLID_14_" class="st11" x1="493" y1="616.6" x2="402.9" y2="662.5"/>
				<line id="XMLID_13_" class="st7" x1="400.6" y1="663.7" x2="398.2" y2="665"/>
			</g>
		</g>
	</g>
</g>
<g id="Abstract" class="st0">
	<path id="XMLID_6_" class="st1" d="M252.7,698.7c4.9-21.8,9.6-43.6,12.9-65.7c14.2-96.5,5.7-195.8-20.6-289.5
		c-2.5-8.9-5.2-17.8-8-26.6l-75.5,75.5c23.6,34.3,41.8,72,53.3,112.5c15.1,53.5,15.3,108.7,7,162.9L252.7,698.7z"/>
	<path id="XMLID_7_" class="st1" d="M271.8,658.5c-3,16.4-6.5,32.8-10.4,49l35.6,35.6c17-32.1,30-66.5,40.5-100.9
		c15.1-49.6,25.3-100.9,29.8-152.6c5.2-59.2,2.2-119.2-4.4-178.2c-3.9-35-9.3-69.9-15.8-104.5L245,308.9
		c20.6,63.1,33.4,128.6,36.9,195.1C284.7,555.7,281.1,607.6,271.8,658.5z"/>
	<path id="XMLID_9_" class="st1" d="M376.1,784.6c7.2-14.6,15.6-28.6,23.4-42.9c8.3-15.3,16.5-30.6,24.6-46
		c32.6-62.1,63.1-125.7,85.7-192.3c22.6-66.7,36.1-136.4,41.7-206.5c5.2-64.4,3.9-129.3-2.3-193.6L549,103c-16.1-2-32.4-3-49-3
		c-16.6,0-33,1-49,3l-95.2,95.2c9,46.2,16,92.8,20.1,139.7c5.1,57.8,6.3,116.2-0.6,173.8c-6.4,53.1-18,105.8-35.4,156.4
		c-9.7,28.3-21.3,56.1-35.5,82.5l59.2,59.2C368,801.4,372,792.9,376.1,784.6z"/>
	<path id="XMLID_10_" class="st1" d="M528.3,743.9c22.7-22.8,45.3-45.6,67-69.3c22-24.1,42.4-49.4,62.1-75.5
		c39.4-52.3,77-106.1,111.6-161.6c14.7-23.7,29-47.6,42.6-71.9L560.7,114.7c6.1,70.1,6.3,140.8-1.5,210.7
		c-7.8,70.7-23.8,140.3-48.7,207c-24.7,66.1-56.4,129.5-89.7,191.7c-15.3,28.5-31,56.6-45.5,85.4c-1.3,2.6-2.7,5.3-4,7.9l45.8,45.8
		C451.4,821,490,782.4,528.3,743.9z"/>
	<path id="XMLID_11_" class="st1" d="M483.4,899.7c7.1-8.1,14.1-16.2,21.3-24.3c22.2-25.1,44.5-50.1,67.3-74.7
		c44.8-48.5,92-94.7,140.6-139.5c48-44.3,97.4-87.1,147.7-128.7c13.2-10.9,26.4-21.7,39.7-32.4c0,0,0,0,0-0.1c0-16.6-1-33-3-49
		l-77.8-77.8c-16.9,30-34.7,59.5-53.3,88.6c-35.5,55.5-73.8,109.2-113.9,161.4c-39.3,51.1-84.9,96.4-130.2,142
		c-33.7,33.9-67.3,68.2-97.3,105.5L451,897C461.7,898.3,472.5,899.2,483.4,899.7z"/>
	<path id="XMLID_1_" class="st1" d="M845.4,558.3c-50,42-99,85.2-146.6,129.8c-48.1,45.2-94.4,92-138.8,140.9
		c-21.3,23.5-42.5,47.1-63.4,70.9c1.1,0,2.2,0,3.3,0c16.6,0,33-1,49-3l348-348c1.4-11.7,2.4-23.6,2.8-35.5
		C881.5,528.3,863.4,543.2,845.4,558.3z"/>
	<path id="XMLID_8_" class="st1" d="M217.2,599.1c0-64-18.3-126.7-51.4-181.3c-3.7-6.1-7.6-12.1-11.6-18L103,451
		c-2,16.1-3,32.4-3,49c0,16.6,1,33,3,49l109.8,109.8C215.6,639.1,217.2,619.2,217.2,599.1z"/>
</g>
<g id="Verse" class="st0">
	<circle class="st12" cx="500" cy="500" r="400"/>
	<circle class="st1" cx="100" cy="500" r="25"/>
	<circle class="st1" cx="832.7" cy="277.3" r="25"/>
	<circle class="st1" cx="608.3" cy="885.2" r="25"/>
	<circle class="st1" cx="600.5" cy="112.8" r="25"/>
</g>
<g id="Audio" class="st0">
	<line class="st2" x1="100" y1="800" x2="200" y2="900"/>
	<line class="st2" x1="100" y1="700" x2="300" y2="900"/>
	<line class="st2" x1="100" y1="500" x2="500" y2="900"/>
	<line class="st2" x1="100" y1="200" x2="800" y2="900"/>
	<line class="st2" x1="900" y1="700" x2="300" y2="100"/>
	<line class="st2" x1="400" y1="100" x2="900" y2="600"/>
	<line class="st2" x1="800" y1="100" x2="900" y2="200"/>
	<line class="st2" x1="900" y1="400" x2="600" y2="100"/>
</g>
<g id="Code" class="st0">
	<path class="st13" d="M700,900H200c0,0-100-1-100-100s0-400,0-400s1-100,100-100s100,100,100,100s3,100,100,100s200,0,200,0"/>
	<path class="st13" d="M800,500c0,0,100-1,100,100s0,101,0,101s1,99-100,99s-300,0-300,0s-100-2-100-100S300,600,300,600H200
		c0,0-100,0-100,100"/>
	<path class="st13" d="M400,100h300c0,0,100-1,100,100S700,300,700,300s-100,1-100,100s100,100,100,100"/>
	<path class="st13" d="M900,701v99c0,0-0.3,100-100,100H300c0,0-100-0.3-100-100s0-99.7,0-99.7S200.3,600,300,600"/>
	<path class="st13" d="M200,300c0,0-100-0.3-100-100s100-100,100-100"/>
	<path class="st13" d="M700,100h100c0,0,100-1,100,100s0,200,0,200c0,98-100,100-100,100s-102,0-200,0S500,400,500,400V200
		c0-100-100-100-100-100H200"/>
</g>
<g id="Visual" class="st0">
	<line class="st14" x1="500" y1="900" x2="500" y2="100"/>
	<line class="st14" x1="350" y1="100" x2="350" y2="900"/>
	<line class="st14" x1="650" y1="900" x2="650" y2="100"/>
	<line class="st14" x1="100" y1="112.5" x2="100" y2="100"/>
	<line class="st14" x1="100" y1="100" x2="112.5" y2="100"/>
	<line class="st14" x1="887.5" y1="100" x2="900" y2="100"/>
	<line class="st14" x1="900" y1="100" x2="900" y2="112.5"/>
	<line class="st14" x1="887.5" y1="900" x2="900" y2="900"/>
	<line class="st14" x1="900" y1="900" x2="900" y2="887.5"/>
	<line class="st14" x1="112.5" y1="900" x2="100" y2="900"/>
	<line class="st14" x1="100" y1="900" x2="100" y2="887.5"/>
</g>
</svg>
